<svg xmlns="http://www.w3.org/2000/svg" viewBox="0 0 32 32">
  <rect width="32" height="32" rx="7" fill="#083763"/>
  <g transform="translate(1.584,7.222) scale(0.3784)">
    <path d="M59.4961 3.03149C63.9444 0.23502 69.8337 1.58181 72.6104 6.08716H72.6094C75.2917 10.4166 74.1293 16.1083 69.9854 19.0032L69.5752 19.2737C66.6082 21.1317 63.0511 21.11 60.1816 19.6624C59.9327 19.5645 59.6887 19.4976 59.4297 19.4583C59.0933 19.4071 58.7049 19.4551 58.2715 19.5813C58.0629 19.658 57.855 19.7588 57.6562 19.887L57.6484 19.8918C56.3989 20.6805 56.0148 22.3315 56.7656 23.5667L60.7246 29.9563C63.4949 34.4256 62.1663 40.3479 57.6904 43.1458C53.2424 45.9403 47.3543 44.5927 44.5781 40.0881V40.0872L40.6943 33.8167L40.5361 33.5881C39.6968 32.5005 38.1709 32.2189 37.0273 32.9504L37.0215 32.9543C36.2495 33.4403 35.7704 34.3157 35.7656 35.2366C35.7641 38.429 34.2025 41.5618 31.293 43.3772C26.845 46.1718 20.9569 44.8242 18.1807 40.3196V40.3186L3.55762 16.7473C0.787388 12.2781 2.11605 6.35572 6.5918 3.55786C11.0391 0.763372 16.9263 2.10963 19.7031 6.61255L23.6104 12.9104H23.6113C24.3948 14.1693 26.0204 14.5472 27.2354 13.802L27.2852 13.7717L27.2891 13.7698C28.0594 13.2911 28.5016 12.4579 28.54 11.5862C28.5025 8.3485 30.0906 5.18269 33.0107 3.35083L33.4316 3.10083C37.8233 0.641921 43.4337 2.04136 46.124 6.40454L50.0547 12.7483L50.2129 12.9768C51.0522 14.0643 52.5782 14.3459 53.7217 13.6145L53.7256 13.6116C53.8953 13.5042 54.0642 13.3279 54.2168 13.1174C54.3648 12.9133 54.4678 12.7203 54.5264 12.6077C54.7917 12.0976 54.958 11.6256 55.0234 11.1165C55.3581 7.65171 56.5715 4.88837 59.4922 3.03442L59.4961 3.03149Z" stroke="#F0F1FE" stroke-width="2.00547"/>
    <path d="M11.6797 10.7654L26.5114 35.0462L38.2998 11.4348L52.9045 35.0462" stroke="#67EADD" stroke-width="0.966808" stroke-miterlimit="10"/>
    <path d="M64.4164 11.4348L27.293 35.0462" stroke="#67EADD" stroke-width="0.966808" stroke-miterlimit="10"/>
    <path d="M64.4161 14.0435C66.0693 14.0435 67.4094 12.7034 67.4094 11.0503C67.4094 9.39714 66.0693 8.05701 64.4161 8.05701C62.763 8.05701 61.4229 9.39714 61.4229 11.0503C61.4229 12.7034 62.763 14.0435 64.4161 14.0435Z" fill="#FFC900"/>
    <path d="M11.9112 14.4282C13.5644 14.4282 14.9045 13.0881 14.9045 11.4349C14.9045 9.78178 13.5644 8.44165 11.9112 8.44165C10.2581 8.44165 8.91797 9.78178 8.91797 11.4349C8.91797 13.0881 10.2581 14.4282 11.9112 14.4282Z" fill="#67EADD"/>
    <path d="M26.5118 38.0394C28.165 38.0394 29.5051 36.6993 29.5051 35.0461C29.5051 33.393 28.165 32.0529 26.5118 32.0529C24.8587 32.0529 23.5186 33.393 23.5186 35.0461C23.5186 36.6993 24.8587 38.0394 26.5118 38.0394Z" fill="#C3A9FF"/>
    <path d="M38.2999 14.4282C39.953 14.4282 41.2932 13.0881 41.2932 11.4349C41.2932 9.78178 39.953 8.44165 38.2999 8.44165C36.6468 8.44165 35.3066 9.78178 35.3066 11.4349C35.3066 13.0881 36.6468 14.4282 38.2999 14.4282Z" fill="#EF7FE3"/>
    <path d="M52.9054 38.0394C54.5585 38.0394 55.8986 36.6993 55.8986 35.0461C55.8986 33.393 54.5585 32.0529 52.9054 32.0529C51.2522 32.0529 49.9121 33.393 49.9121 35.0461C49.9121 36.6993 51.2522 38.0394 52.9054 38.0394Z" fill="#FB9867"/>
  </g>
</svg>
