<?xml version="1.0" encoding="UTF-8"?>
<svg id="Layer_2" data-name="Layer 2" xmlns="http://www.w3.org/2000/svg" viewBox="0 0 453.29 72.47">
  <defs>
    <style>
      .cls-1 {
        fill: #67EADD;
        fill-rule: evenodd;
      }
    </style>
  </defs>
  <g id="Layer_1-2" data-name="Layer 1">
    <g id="Workato_logo" data-name="Workato logo">
      <path class="cls-1" d="M120.03,7.09c4.34,7.04,2.25,16.35-4.74,20.75-4.66,2.93-10.27,2.89-14.8.56-.57-.23-1.14-.39-1.75-.48-.95-.15-1.92,0-2.84.28-.5.18-1,.42-1.48.73-2.99,1.89-3.92,5.86-2.11,8.86l6.93,11.24c4.34,7.04,2.25,16.35-4.74,20.75-6.96,4.39-16.16,2.28-20.51-4.8l-6.8-11.03c-1.89-3.05-5.87-3.99-8.85-2.07-1.87,1.18-3,3.29-3.02,5.49,0,5.04-2.45,9.97-7,12.82-6.96,4.39-16.16,2.28-20.51-4.8L2.26,23.96C-2.08,16.93,0,7.61,7.01,3.21,13.96-1.18,23.17.94,27.51,8.02l6.84,11.07c1.87,3.02,5.79,3.97,8.76,2.13l.09-.06c1.89-1.18,2.94-3.21,3.02-5.29-.08-5.13,2.41-10.13,7-13.02,6.96-4.39,16.16-2.28,20.51,4.8l6.88,11.15c1.89,3.05,5.87,3.99,8.85,2.07,1.11-.71,1.79-2.01,2.02-2.44.53-1.03.91-2.06,1.05-3.21.54-5.76,2.49-10.05,7.01-12.94C106.48-2.11,115.69,0,120.03,7.09Z"/>
      <path class="cls-1" d="M300.52,66.08v-16.97l15.84,16.97h12.33l-20.23-21.28,20.23-21.52h-12.33l-15.84,17.03V0h-9.31v66.08h9.31ZM250.45,44.54c0,13.56-10.23,22.46-22.37,22.46s-22.19-8.89-22.19-22.46,10.14-22.18,22.19-22.18,22.37,8.62,22.37,22.18ZM170.03,35.75l-10.41,30.34h-7.67l-16.07-42.8h10.05l9.86,28.87,9.86-28.87h8.77l9.86,28.87,9.95-28.87h10.04l-15.61,42.8h-7.76l-10.87-30.34ZM228.08,57.83c-7.03,0-12.88-5.22-12.88-13.29s5.84-12.92,12.88-12.92,12.97,5.04,12.97,12.92-5.84,13.29-12.97,13.29ZM267.22,50.69v15.4h-9.41V23.28h9.41v9.81c2.19-7.61,6.39-10.72,11.69-10.72,3.01,0,6.21.73,7.58,1.65l-1.55,8.71c-2.37-1.19-4.47-1.47-6.3-1.47-8.04,0-11.41,8.07-11.41,19.43ZM365.05,59.94c-2.83,4.67-9.04,7.06-14.34,7.06-11.51,0-21.64-8.71-21.64-22.36s10.14-22.27,21.64-22.27c5.11,0,11.41,2.11,14.34,6.97v-6.05h9.31v42.8h-9.31v-6.14ZM351.81,57.83c-7.12,0-13.06-5.41-13.06-13.29s5.94-13.02,13.06-13.02c6.39,0,13.15,4.58,13.15,13.02s-6.21,13.29-13.15,13.29ZM397.25,31.07v35.01h-9.41V31.07h-7.67v-7.79h7.67V7.06h9.41v16.22h9.04v7.79h-9.04ZM430.92,67c12.14,0,22.37-8.89,22.37-22.46s-10.23-22.18-22.37-22.18-22.19,8.62-22.19,22.18,10.14,22.46,22.19,22.46ZM418.04,44.54c0,8.07,5.84,13.29,12.88,13.29s12.97-5.22,12.97-13.29-5.84-12.92-12.97-12.92-12.88,5.04-12.88,12.92Z"/>
    </g>
  </g>
</svg>
